<?xml version="1.0" encoding="UTF-8"?>
<svg xmlns="http://www.w3.org/2000/svg" xmlns:xlink="http://www.w3.org/1999/xlink" width="64" height="64" viewBox="0 0 64 64">
<path fill="none" stroke-width="1.7" stroke-linecap="round" stroke-linejoin="round" stroke="rgb(23.921569%, 68.235294%, 91.372549%)" stroke-opacity="1" stroke-miterlimit="4.6" d="M 3.144775 18.869995 L 6.297607 4.283447 L 17.155273 6.364746 L 18.782715 14.31665 L 10.19165 11.24707 Z M 3.144775 18.869995 " transform="matrix(2.909091, 0, 0, 2.909091, 0, 0)"/>
<path fill-rule="nonzero" fill="rgb(85.490196%, 93.72549%, 98.431373%)" fill-opacity="1" d="M 9.148438 54.894531 L 18.320312 12.460938 L 49.90625 18.515625 L 54.640625 41.648438 L 29.648438 32.71875 Z M 9.148438 54.894531 "/>
<path fill-rule="nonzero" fill="rgb(13.72549%, 14.901961%, 16.078431%)" fill-opacity="1" d="M 4.363281 54.492188 L 12.078125 54.492188 L 12.078125 57.066406 L 4.363281 57.066406 Z M 4.363281 54.492188 "/>
<path fill-rule="nonzero" fill="rgb(13.72549%, 14.901961%, 16.078431%)" fill-opacity="1" d="M 6.933594 59.636719 L 6.933594 51.921875 L 9.507812 51.921875 L 9.507812 59.636719 Z M 6.933594 59.636719 "/>
<path fill-rule="nonzero" fill="rgb(13.72549%, 14.901961%, 16.078431%)" fill-opacity="1" d="M 13.683594 10.097656 L 21.398438 10.097656 L 21.398438 12.667969 L 13.683594 12.667969 Z M 13.683594 10.097656 "/>
<path fill-rule="nonzero" fill="rgb(13.72549%, 14.901961%, 16.078431%)" fill-opacity="1" d="M 16.253906 15.242188 L 16.253906 7.523438 L 18.828125 7.523438 L 18.828125 15.242188 Z M 16.253906 15.242188 "/>
<path fill-rule="nonzero" fill="rgb(13.72549%, 14.901961%, 16.078431%)" fill-opacity="1" d="M 46.828125 16.511719 L 54.542969 16.511719 L 54.542969 19.082031 L 46.828125 19.082031 Z M 46.828125 16.511719 "/>
<path fill-rule="nonzero" fill="rgb(13.72549%, 14.901961%, 16.078431%)" fill-opacity="1" d="M 49.398438 21.652344 L 49.398438 13.9375 L 51.96875 13.9375 L 51.96875 21.652344 Z M 49.398438 21.652344 "/>
<path fill-rule="nonzero" fill="rgb(13.72549%, 14.901961%, 16.078431%)" fill-opacity="1" d="M 51.921875 41.5625 L 59.636719 41.5625 L 59.636719 44.132812 L 51.921875 44.132812 Z M 51.921875 41.5625 "/>
<path fill-rule="nonzero" fill="rgb(13.72549%, 14.901961%, 16.078431%)" fill-opacity="1" d="M 54.492188 46.707031 L 54.492188 38.992188 L 57.066406 38.992188 L 57.066406 46.707031 Z M 54.492188 46.707031 "/>
<path fill-rule="nonzero" fill="rgb(13.72549%, 14.901961%, 16.078431%)" fill-opacity="1" d="M 26.148438 33.050781 L 33.863281 33.050781 L 33.863281 35.625 L 26.148438 35.625 Z M 26.148438 33.050781 "/>
<path fill-rule="nonzero" fill="rgb(13.72549%, 14.901961%, 16.078431%)" fill-opacity="1" d="M 28.722656 38.195312 L 28.722656 30.480469 L 31.292969 30.480469 L 31.292969 38.195312 Z M 28.722656 38.195312 "/>
</svg>
