<?xml version="1.0" encoding="UTF-8"?>
<svg xmlns="http://www.w3.org/2000/svg" xmlns:xlink="http://www.w3.org/1999/xlink" width="64" height="64" viewBox="0 0 64 64">
<path fill-rule="nonzero" fill="rgb(13.72549%, 14.901961%, 16.078431%)" fill-opacity="1" d="M 28 8 L 28 12.40625 C 25.496094 12.921875 23.113281 13.914062 20.984375 15.328125 L 17.859375 12.203125 L 12.203125 17.859375 L 15.328125 20.984375 C 13.921875 23.117188 12.933594 25.496094 12.421875 28 L 8 28 L 8 36 L 12.40625 36 C 12.921875 38.503906 13.914062 40.886719 15.328125 43.015625 L 12.203125 46.140625 L 17.859375 51.796875 L 20.984375 48.671875 C 23.117188 50.078125 25.496094 51.066406 28 51.578125 L 28 56 L 36 56 L 36 47.476562 C 34.695312 47.820312 33.351562 47.996094 32 48 C 27.675781 48 23.535156 46.25 20.523438 43.148438 C 17.621094 40.164062 16 36.164062 16 32 C 16 27.675781 17.75 23.535156 20.851562 20.523438 C 23.835938 17.621094 27.835938 16 32 16 C 36.324219 16 40.464844 17.75 43.476562 20.851562 C 46.378906 23.835938 48 27.835938 48 32 L 56 32 L 56 28 L 51.59375 28 C 51.078125 25.496094 50.085938 23.113281 48.671875 20.984375 L 51.796875 17.859375 L 46.140625 12.203125 L 43.015625 15.328125 C 40.882812 13.921875 38.503906 12.933594 36 12.421875 L 36 8 Z M 28 24 L 28 40 L 40 32 Z M 40 36 L 40 40 L 56 40 L 56 36 Z M 40 44 L 40 48 L 56 48 L 56 44 Z M 40 52 L 40 56 L 56 56 L 56 52 Z M 40 52 "/>
</svg>
