<?xml version="1.0" encoding="UTF-8"?>
<svg xmlns="http://www.w3.org/2000/svg" xmlns:xlink="http://www.w3.org/1999/xlink" width="64" height="64" viewBox="0 0 64 64">
<path fill-rule="nonzero" fill="rgb(13.72549%, 14.901961%, 16.078431%)" fill-opacity="1" d="M 8 8 L 8 20 L 12 20 L 12 12 L 20 12 L 20 8 Z M 44 8 L 44 12 L 52 12 L 52 20 L 56 20 L 56 8 Z M 16 16 L 16 48 L 48 48 L 48 16 Z M 20 20 L 44 20 L 44 44 L 20 44 Z M 8 44 L 8 56 L 20 56 L 20 52 L 12 52 L 12 44 Z M 52 44 L 52 52 L 44 52 L 44 56 L 56 56 L 56 44 Z M 52 44 "/>
</svg>
